<svg xmlns="http://www.w3.org/2000/svg" width="1333.527" height="531"><path fill="#98CA3E" d="M279.353 25.829c-9.523-4.173-19.002-7.061-28.381-8.795a110.321 110.321 0 0 0-20.07-1.85c-33.51 0-64.443 15.403-89.32 38.723-30.191 28.301-81.253 86.206-20.021 112.021 17.828 7.517 37.536 11.516 57.139 11.516 13.277 0 26.506-1.835 39.072-5.654 14.698-4.467 28.514-11.602 40.753-20.875 3.396-2.572 15.062-12.726 20.161-23.592 0 0 .401 20.459-9.227 44.127-9.302 22.868-36.484 53.297-36.484 53.297l62.33 53.207c.225.25.443.504.668.754l.171.185c8.531-12.831 16.226-26.393 22.645-40.758 31.333-70.131 46.317-174.723-39.436-212.306z"/><path fill="#231F20" d="M349.08 77.192c-5.521-14.284-13.452-26.944-23.573-37.629-10.841-11.443-24.319-20.743-40.06-27.642-10.357-4.539-21.028-7.843-31.716-9.819A125.9 125.9 0 0 0 230.901 0c-18.294 0-36.506 4.022-54.13 11.954-16.133 7.261-31.466 17.648-45.575 30.874-15.163 14.214-27.334 28.005-36.176 40.991-13.961 20.505-19.558 39.183-16.635 55.516 1.587 8.87 5.617 16.856 11.977 23.739 6.207 6.718 14.719 12.386 25.298 16.846 19.72 8.314 41.518 12.708 63.038 12.708 15.08 0 29.712-2.123 43.488-6.31a143.68 143.68 0 0 0 29.354-12.639c-8.624 15.699-23.876 34.218-29.89 40.951a15.184 15.184 0 0 0 1.466 21.665l61.525 52.521.046.051c.092.103.19.208.288.312a15.18 15.18 0 0 0 12.317 4.853 15.183 15.183 0 0 0 11.496-6.734c9.435-14.19 17.464-28.648 23.863-42.971 8.364-18.719 19.297-48.072 23.887-81.605 4.442-32.454 1.933-61.231-7.458-85.53zm-53.776 200.761l-62.33-53.207s27.182-30.429 36.484-53.297c9.627-23.668 9.227-44.127 9.227-44.127-5.099 10.866-16.766 21.02-20.161 23.592-12.24 9.273-26.055 16.408-40.753 20.875-12.566 3.819-25.795 5.654-39.072 5.654-19.603 0-39.311-3.999-57.139-11.516-61.231-25.814-10.17-83.72 20.021-112.021 24.877-23.319 55.811-38.723 89.32-38.723 6.598 0 13.3.599 20.07 1.85 9.379 1.734 18.858 4.622 28.381 8.795 85.753 37.583 70.77 142.175 39.435 212.305-6.418 14.365-14.113 27.927-22.645 40.758-.057-.062-.115-.122-.171-.185-.224-.249-.443-.503-.667-.753z"/><path fill="#80B041" d="M264.26 238.514a382.744 382.744 0 0 0 4.329-11.015c6.157-16.429 11.223-33.378 13.935-50.736 1.013-9.021 1.292-18.126.423-27.163-.848-4.833-2.072-9.586-3.746-14.197-.255-.529-.527-1.049-.795-1.569-.623 7.882-2.616 22.052-8.947 37.616-9.302 22.868-36.484 53.297-36.484 53.297l27.117 23.148a475.209 475.209 0 0 0 4.168-9.381z"/><circle fill="#231F20" cx="203.285" cy="123.602" r="20.978"/><path fill="#D59D29" d="M240.915 209.357c-.487-.195-.981-.391-1.48-.585a46.541 46.541 0 0 1-29.329 17.667l.001.287c0 25.597-20.824 46.422-46.421 46.422-17.834 0-33.667-9.974-41.449-25.468a46.401 46.401 0 0 1-10.79 1.26c-10.517 0-20.707-3.608-28.863-10.075-31.265 27.109-49.622 64.073-51.874 104.77-2.23 40.316 11.335 79.362 38.198 109.943a156.173 156.173 0 0 0 25.473 23.258c17.636 1.736 35.292 2.756 52.975 1.397 7.411-.569 14.811-1.484 22.181-2.533l-22.838-11.841c-5.148-2.67-6.134-9.613-1.934-13.61l17.449-16.604c3.664-3.486 9.549-2.991 12.579 1.059l20.452 27.337a8.437 8.437 0 0 1 .74 8.918 146.397 146.397 0 0 0 13.126-3.998c2.238-.8 4.454-1.658 6.652-2.561 8.417-3.46 16.9-6.865 25.147-10.732 9.078-4.256 17.504-9.543 25.768-15.194 12.541-8.576 24.737-17.813 36.228-27.746 7.048-6.091 13.575-12.778 19.346-20.096 5.12-6.493 10.158-12.886 14.866-19.484.407-3.283.722-6.597.919-9.942.529-8.944.285-17.951-.726-26.771-6.295-54.96-44.133-104.056-96.396-125.078zm-130.89 190.008L91.262 411.16a7.6 7.6 0 0 1-10.498-2.42l-10.025-16.117c-2.952-4.746.056-10.947 5.611-11.567l27.075-3.019a7.6 7.6 0 0 1 8.243 5.825l1.713 7.341a7.601 7.601 0 0 1-3.356 8.162zm10.544-95.66l-34.44 8.142a8.444 8.444 0 0 1-9.871-5.317l-2.908-7.958a8.44 8.44 0 0 1 3.554-10.117l28.77-17.435c4.225-2.56 9.734-.962 11.934 3.461l8.578 17.25c2.421 4.869-.325 10.723-5.617 11.974zm82.563 56.24l-3.7 8.16a9.032 9.032 0 0 1-9.072 5.262l-26.225-2.467a9.033 9.033 0 0 1-8.143-9.882l2.22-22.449c.653-6.61 7.979-10.278 13.663-6.84l27.705 16.757a9.031 9.031 0 0 1 3.552 11.459zm36.625-71.326c-4.658-.951-7.612-5.56-6.532-10.189l3.518-15.078c1.077-4.616 5.744-7.441 10.334-6.255l28.964 7.487a8.442 8.442 0 0 1 6.3 8.876l-1.167 13.986c-.42 5.04-5.147 8.581-10.102 7.569l-31.315-6.396zm63.145 81.201l-28.259 35.931a8.442 8.442 0 0 1-11.035 1.985l-18.501-11.297a8.443 8.443 0 0 1-3.637-9.791l13.118-40.764c1.567-4.871 7.072-7.238 11.686-5.026l33.643 16.131c4.871 2.337 6.325 8.584 2.985 12.831z"/><path fill="#A57F48" d="M302.905 410.728c-11.491 9.933-23.687 19.17-36.228 27.746-8.263 5.651-16.689 10.938-25.768 15.194-8.247 3.867-16.73 7.272-25.147 10.732a154.601 154.601 0 0 1-6.652 2.561 146.497 146.497 0 0 1-13.126 3.998 8.416 8.416 0 0 1-1.68 2.255l-6.066 5.771a8.442 8.442 0 0 1-9.705 1.379l-8.997-4.664c-7.37 1.049-14.77 1.964-22.181 2.533-17.683 1.358-35.339.339-52.975-1.397 22.889 16.651 49.917 26.659 78.623 28.778 3.832.283 7.714.427 11.535.427 77.923 0 143.105-58.489 152.577-134.894-4.708 6.599-9.747 12.991-14.866 19.484-5.769 7.318-12.296 14.006-19.344 20.097z"/><path fill="#231F20" d="M352.396 332.707c-6.92-60.419-48.455-114.366-105.815-137.438a166.023 166.023 0 0 0-7.693-2.866l-6.002-2.071-3.101 5.539c-5.528 9.875-15.978 16.01-27.259 16.01l-.16-.005a17.725 17.725 0 0 0-.401-.011l-9.341-.173 1.741 9.179c.37 1.947.557 3.918.557 5.855 0 17.225-14.012 31.236-31.235 31.236-13.76 0-25.748-8.817-29.831-21.941l-2.492-8.011-7.724 3.276a31.012 31.012 0 0 1-12.191 2.469 31.322 31.322 0 0 1-23.011-10.119l-4.796-5.223-5.538 4.427c-18.243 14.584-32.938 32.175-43.676 52.287-11.203 20.982-17.555 43.75-18.878 67.668-2.452 44.314 12.447 87.216 41.95 120.805 29.506 33.592 70.13 53.892 114.387 57.158 4.203.311 8.46.467 12.653.467 89.298 0 163.38-69.896 168.655-159.124.58-9.818.311-19.707-.799-29.394zM184.54 506.041c-3.821 0-7.703-.144-11.535-.427-28.707-2.119-55.734-12.127-78.623-28.778a156.173 156.173 0 0 1-25.473-23.258c-26.862-30.581-40.428-69.627-38.198-109.943 2.251-40.696 20.608-77.66 51.874-104.77 8.156 6.467 18.347 10.075 28.863 10.075 3.67 0 7.278-.422 10.79-1.26 7.782 15.494 23.615 25.468 41.449 25.468 25.597 0 46.421-20.825 46.421-46.422l-.001-.287a46.541 46.541 0 0 0 29.329-17.667c.499.194.993.39 1.48.585 52.263 21.021 90.101 70.117 96.396 125.077a155.343 155.343 0 0 1 .726 26.771 154.66 154.66 0 0 1-.919 9.942c-9.474 76.405-74.656 134.894-152.579 134.894z"/><path fill="#492B15" d="M111.667 383.862a7.6 7.6 0 0 0-8.243-5.825l-27.075 3.019c-5.555.62-8.563 6.821-5.611 11.567l10.025 16.117a7.6 7.6 0 0 0 10.498 2.42l18.763-11.795a7.602 7.602 0 0 0 3.356-8.162l-1.713-7.341zm5.94-109.382c-2.2-4.423-7.709-6.021-11.934-3.461l-28.77 17.435a8.442 8.442 0 0 0-3.554 10.117l2.908 7.958a8.442 8.442 0 0 0 9.871 5.317l34.44-8.142c5.292-1.251 8.038-7.105 5.617-11.975l-8.578-17.249zm77.892 196.608c.163-.041.323-.088.485-.129a8.435 8.435 0 0 0-.74-8.918l-20.452-27.337c-3.029-4.05-8.915-4.545-12.579-1.059l-17.449 16.604c-4.201 3.997-3.214 10.94 1.934 13.61l22.838 11.841a993.911 993.911 0 0 0 12.026-1.802 153.94 153.94 0 0 0 13.937-2.81z"/><path fill="#492B15" d="M188.238 478.985l6.066-5.771a8.416 8.416 0 0 0 1.68-2.255c-.162.041-.323.088-.485.129a154.289 154.289 0 0 1-13.937 2.811c-3.998.619-8.007 1.229-12.026 1.802l8.997 4.664a8.442 8.442 0 0 0 9.705-1.38zm11.343-130.499l-27.705-16.757c-5.684-3.438-13.01.229-13.663 6.84l-2.22 22.449c-.493 4.981 3.16 9.413 8.143 9.882l26.225 2.467a9.032 9.032 0 0 0 9.072-5.262l3.7-8.16a9.033 9.033 0 0 0-3.552-11.459zm81.593-61.04l1.167-13.986a8.441 8.441 0 0 0-6.3-8.876l-28.964-7.487c-4.59-1.187-9.257 1.639-10.334 6.255l-3.518 15.078a8.442 8.442 0 0 0 6.532 10.189l31.315 6.396c4.955 1.012 9.682-2.529 10.102-7.569zm18.743 69.543l-33.643-16.131c-4.614-2.212-10.119.155-11.686 5.026l-13.118 40.764a8.443 8.443 0 0 0 3.637 9.791l18.501 11.297a8.443 8.443 0 0 0 11.035-1.985l28.259-35.931c3.34-4.247 1.886-10.494-2.985-12.831z"/><path fill="#93C740" d="M259.612 493.006c.591-.379 1.186-.754 1.771-1.143-.586.389-1.179.764-1.771 1.143zm-4.564 2.836z"/><path fill="#80B041" d="M258.244 493.889c.46-.288.912-.589 1.368-.883-.456.294-.908.595-1.368.883z"/><path fill="#673995" d="M73.574 476.002c.162.168.335.329.5.496.083-.039.173-.086.256-.126-.305-.071-.572-.181-.756-.37z"/><path fill="#98CA3E" d="M34.564 336.924c-2.577 0-4.904.138-6.938.354a4.98 4.98 0 0 0-.404-.017c-10.601-.002-20.15 32.697-1.14 53.604 0 0 39.193-26.152 78.996-26.25-18.784-16.299-46.75-25.364-61.084-27.108a78.458 78.458 0 0 0-9.43-.583z"/><path fill="#231F20" d="M115.03 353.147c-21.923-19.023-53.396-28.79-69.202-30.714a93.617 93.617 0 0 0-11.264-.694c-2.576 0-5.106.114-7.538.339-4.642.049-15.694 1.919-22.564 17.447-7.187 16.242-7.002 42.434 10.385 61.556a15.165 15.165 0 0 0 11.242 4.97c2.914 0 5.846-.835 8.422-2.554.337-.224 36.017-23.611 70.605-23.696a15.186 15.186 0 0 0 9.914-26.654zm-80.466-16.223c2.855 0 6.017.169 9.43.584 14.334 1.744 42.3 10.81 61.084 27.108-39.803.098-78.996 26.25-78.996 26.25-19.01-20.907-9.46-53.606 1.14-53.604.134 0 .27.006.404.017a65.636 65.636 0 0 1 6.938-.355z"/><path fill="none" d="M326.772 470.543c-5.742-4.504-10.532-6.305-18.718-10.492h-.001s-8.935 9.698-9.985 10.91c-7.881 9.102-16.68 16.988-26.609 23.798-.438.3-.884.589-1.324.885-.652.438-1.302.881-1.96 1.31-.624.405-1.256.797-1.885 1.193-.486.307-.968.62-1.457.922-1.126.692-2.26 1.372-3.403 2.037a232.3 232.3 0 0 0 5.223 1.637c1.798.539 3.654 1.072 5.565 1.593 9.454 2.575 19.388 4.057 29.176 4.057 15.708 0 31.043-3.818 43.444-13.051-1.009-2.048-2.034-4.111-2.249-4.73-3.749-7.78-9.003-14.725-15.817-20.069zM55.8 477.162c.248.686.512 1.361.785 2.033-1.798-6.197-2.919-12.611-3.322-18.83-.55 5.658.59 11.418 2.537 16.797z"/><path fill="#93C740" d="M358.127 481.586c10.014-14.346 13.194-33.445 7.194-50.021-2.809-7.76-7.594-14.103-13.548-19.213-8.059-6.916-18.257-11.576-28.592-14.438-10.003-2.771-20.499-4.092-30.987-4.092-8.812 0-17.616.932-26.125 2.721a149.747 149.747 0 0 0-16.15 4.375c-31.708 10.474-60.212 28.361-90.179 42.729-18.693 8.963-38.56 17.086-59.449 18.629a82.05 82.05 0 0 1-5.993.216c-20.989 0-39.943-7.575-39.943-7.575a26.875 26.875 0 0 0-1.093 5.448c.403 6.219 1.523 12.633 3.322 18.83 7.324 18.002 23.542 30.893 42.695 34.789 6.184 1.258 12.466 1.831 18.779 1.831 41.308 0 84.159-24.48 112.5-41.521 17.113-10.289 37.56-16.816 57.668-16.816 3.083 0 6.158.153 9.211.471a58.784 58.784 0 0 1 10.098 1.953c.172.05.348.098.517.148h.001c8.186 4.188 12.976 5.988 18.718 10.492 6.814 5.344 12.068 12.289 15.815 20.067.215.619 1.24 2.683 2.249 4.73 4.955-3.686 9.44-8.235 13.292-13.753z"/><path fill="none" d="M351.774 412.352c-8.059-6.916-18.257-11.576-28.592-14.438-10.003-2.771-20.499-4.092-30.987-4.092-8.812 0-17.616.932-26.125 2.721a149.747 149.747 0 0 0-16.15 4.375c-31.708 10.474-60.212 28.361-90.179 42.729-18.693 8.963-38.56 17.086-59.449 18.629a82.05 82.05 0 0 1-5.993.216c-20.989 0-39.943-7.575-39.943-7.575a26.875 26.875 0 0 0-1.093 5.448c-.55 5.658.589 11.418 2.537 16.797.248.686.512 1.361.785 2.033 7.324 18.002 23.542 30.893 42.695 34.789 6.184 1.258 12.466 1.831 18.779 1.831 41.308 0 84.159-24.48 112.5-41.521 17.113-10.289 37.56-16.816 57.668-16.816 3.083 0 6.158.153 9.211.471a58.784 58.784 0 0 1 10.098 1.953c.172.05.348.098.517.148l-.132.144c1.302.216 2.814.551 4.534 1.06 0 0 10.852 6.028 13.843 8.712a90.07 90.07 0 0 1 10.405 10.522 77.557 77.557 0 0 1 5.885 10.122c.215.619 1.24 2.683 2.249 4.73 4.953-3.688 9.439-8.236 13.291-13.755 10.014-14.346 13.194-33.445 7.194-50.021-2.809-7.759-7.594-14.102-13.548-19.212z"/><path fill="#80B041" d="M336.703 480.488a89.913 89.913 0 0 0-10.405-10.522c-2.991-2.684-13.843-8.712-13.843-8.712a37.821 37.821 0 0 0-4.534-1.06c-1.096 1.19-8.876 9.641-9.853 10.767-7.881 9.102-16.68 16.988-26.609 23.798-.438.3-.884.589-1.324.885-.652.438-1.302.881-1.96 1.31-.624.405-1.256.797-1.885 1.193-.486.307-.968.62-1.457.922-1.126.692-2.26 1.372-3.403 2.037a232.3 232.3 0 0 0 5.223 1.637c1.798.539 3.654 1.072 5.565 1.593 9.454 2.575 19.388 4.057 29.176 4.057 15.708 0 31.043-3.818 43.444-13.051-1.009-2.048-2.034-4.111-2.249-4.73a77.568 77.568 0 0 0-5.886-10.124z"/><path fill="#231F20" d="M379.6 426.396c-3.544-9.792-9.579-18.394-17.937-25.567-9.147-7.852-20.731-13.756-34.429-17.55-11.124-3.08-22.913-4.643-35.04-4.643-9.795 0-19.636 1.025-29.249 3.047-5.854 1.23-11.839 2.851-17.789 4.816-22.739 7.511-43.701 18.522-63.973 29.171-9.173 4.818-18.658 9.802-28.008 14.284-16.08 7.709-35.07 15.779-54.003 17.178a66.96 66.96 0 0 1-4.874.174c-17.399 0-33.731-6.267-34.326-6.497a15.064 15.064 0 0 0-5.645-1.099c-2.217 0-4.432.49-6.488 1.461-3.835 1.811-6.706 5.155-7.975 9.202-3.053 9.738-2.496 20.489 1.654 31.957 4.268 11.789 11.665 22.338 21.393 30.505 9.508 7.983 21.036 13.525 33.339 16.028 6.964 1.417 14.301 2.136 21.806 2.136 20.443 0 42.375-5.096 67.05-15.579 19.523-8.295 37.143-18.413 53.274-28.112 11.137-6.695 23.276-11.259 35.255-13.348a123.486 123.486 0 0 1-10.768 8.274c-.206.142-.413.277-.618.414-.194.129-.389.257-.582.388l-.5.336c-.423.285-.846.57-1.273.849-.384.25-.771.491-1.157.733l-.55.346c-.205.129-.408.259-.611.389-.235.15-.47.301-.708.447a146.467 146.467 0 0 1-3.08 1.845 15.184 15.184 0 0 0 2.929 27.561 246.624 246.624 0 0 0 11.507 3.444c11.184 3.046 22.343 4.59 33.167 4.59 13.762 0 26.433-2.501 37.659-7.435 12.897-5.668 23.504-14.37 31.527-25.864 6.312-9.041 10.519-19.627 12.168-30.612 1.707-11.364.619-22.869-3.145-33.269zm-21.473 55.19c-3.852 5.519-8.338 10.067-13.291 13.755-12.4 9.232-27.736 13.051-43.444 13.051-9.789 0-19.722-1.481-29.176-4.057a230.719 230.719 0 0 1-5.565-1.593 232.3 232.3 0 0 1-5.223-1.637 164.382 164.382 0 0 0 3.403-2.037c.489-.302.971-.615 1.457-.922.629-.396 1.262-.788 1.885-1.193.659-.429 1.308-.871 1.96-1.31.44-.296.886-.585 1.324-.885 9.929-6.81 18.729-14.696 26.609-23.798.976-1.126 8.757-9.576 9.853-10.767l.132-.144c-.169-.051-.345-.099-.517-.148a58.689 58.689 0 0 0-10.098-1.953 89.207 89.207 0 0 0-9.211-.471c-20.108 0-40.555 6.527-57.668 16.816-28.341 17.04-71.191 41.521-112.5 41.521-6.313 0-12.595-.573-18.779-1.831-19.152-3.896-35.371-16.787-42.695-34.789a54.713 54.713 0 0 1-.785-2.033c-1.947-5.379-3.086-11.139-2.537-16.797a26.875 26.875 0 0 1 1.093-5.448s18.954 7.575 39.943 7.575c1.984 0 3.987-.068 5.993-.216 20.889-1.543 40.755-9.666 59.449-18.629 29.967-14.368 58.472-32.256 90.179-42.729a149.747 149.747 0 0 1 16.15-4.375 127.342 127.342 0 0 1 26.125-2.721c10.488 0 20.984 1.321 30.987 4.092 10.334 2.861 20.533 7.521 28.592 14.438 5.954 5.11 10.739 11.453 13.548 19.213 6.001 16.577 2.822 35.676-7.193 50.022zm120.045-346.539h61.236c41.891 0 62.837 17.28 62.837 51.831 0 34.422-20.946 51.631-62.837 51.631H524.4v36.623h-46.228V135.047zm78.246 51.831c0-9.205-5.803-13.807-17.41-13.807H524.4v27.415h14.608c11.608 0 17.41-4.533 17.41-13.608zm139.887 88.254h-45.828v-47.829l-53.232-92.256h52.232l24.015 53.031 24.014-53.031h52.232l-53.433 92.256v47.829zm54.831-140.085H872.41v40.425h-37.623v99.66h-46.028v-99.66h-37.622v-40.425zm218.53 0h46.028v140.085h-46.028v-49.83h-38.021v49.83h-46.229V135.047h46.229v49.831h38.021v-49.831zm81.246 122.574c-13.207-13.809-19.811-31.318-19.811-52.531s6.604-38.723 19.811-52.532c13.208-13.809 31.885-20.712 56.035-20.712 24.145 0 42.825 6.903 56.033 20.712 13.208 13.81 19.811 31.319 19.811 52.532s-6.603 38.723-19.811 52.531-31.889 20.713-56.033 20.713c-24.151 0-42.827-6.904-56.035-20.713zm76.947-29.517c5.003-5.604 7.504-13.273 7.504-23.014 0-9.737-2.501-17.411-7.504-23.014-5.004-5.604-11.977-8.404-20.912-8.404-8.941 0-15.91 2.801-20.914 8.404-5.002 5.603-7.504 13.276-7.504 23.014 0 9.74 2.502 17.41 7.504 23.014 5.004 5.603 11.973 8.404 20.914 8.404 8.935 0 15.908-2.802 20.912-8.404zm116.57 47.028H1198.2V135.047h39.023l47.429 65.84c-.8-6.67-1.2-14.675-1.2-24.015v-41.825h46.227v140.085h-39.022l-47.429-65.64c.801 6.673 1.201 14.543 1.201 23.614v42.026zm-662.191 50.356h36.221v123.686h-39.755v-56.543l-20.319 31.452h-21.38l-20.319-31.628v56.719H476.93V325.488h36.223l34.455 54.069 34.63-54.069zm67.319 108.225c-11.662-12.191-17.493-27.652-17.493-46.381 0-18.73 5.831-34.19 17.493-46.383s28.152-18.288 49.474-18.288c21.318 0 37.812 6.096 49.473 18.288 11.663 12.192 17.493 27.652 17.493 46.383 0 18.729-5.83 34.189-17.493 46.381C736.842 445.904 720.349 452 699.031 452c-21.322 0-37.812-6.096-49.474-18.287zm67.938-26.062c4.417-4.948 6.626-11.72 6.626-20.319 0-8.598-2.209-15.373-6.626-20.32s-10.573-7.422-18.464-7.422c-7.894 0-14.048 2.475-18.465 7.422s-6.625 11.723-6.625 20.32c0 8.6 2.208 15.371 6.625 20.319 4.417 4.946 10.571 7.421 18.465 7.421 7.89 0 14.047-2.474 18.464-7.421zm102.923 41.523h-40.815V325.488h57.424c7.068 0 13.545.708 19.437 2.121a57.005 57.005 0 0 1 16.609 6.891c5.183 3.182 9.246 7.717 12.192 13.605 2.941 5.892 4.416 12.898 4.416 21.026 0 17.553-7.067 29.86-21.202 36.929l31.804 43.113h-44.879l-25.443-36.576h-9.542v36.577zm0-90.467v23.323h15.726c3.887 0 6.949-1.06 9.188-3.181 2.236-2.12 3.356-4.947 3.356-8.48 0-3.534-1.12-6.36-3.356-8.482-2.239-2.119-5.302-3.18-9.188-3.18h-15.726zm83.752 2.297c0-12.485 4.563-21.997 13.694-28.536 9.127-6.537 20.761-9.807 34.896-9.807 17.551 0 32.688 3.419 45.409 10.249v35.338c-12.721-8.128-26.387-12.073-40.992-11.838-7.305 0-10.954 1.827-10.954 5.477 0 1.652 1.118 3.153 3.356 4.507 2.236 1.355 5.094 2.562 8.57 3.622a746.91 746.91 0 0 0 11.661 3.445c4.298 1.236 8.597 2.857 12.899 4.859 4.297 2.004 8.185 4.359 11.661 7.067 3.473 2.711 6.331 6.361 8.569 10.954 2.236 4.595 3.357 9.779 3.357 15.55 0 26.74-17.316 40.108-51.947 40.108-18.848 0-35.223-3.887-49.121-11.662v-36.929c14.723 9.661 29.742 14.489 45.057 14.489 5.183 0 8.805-.47 10.867-1.413 2.059-.941 3.092-2.474 3.092-4.594 0-1.884-1.475-3.622-4.418-5.213-2.945-1.591-6.656-2.942-11.131-4.063-4.479-1.118-9.307-2.738-14.489-4.859-5.185-2.121-10.013-4.532-14.488-7.244-4.478-2.708-8.188-6.626-11.132-11.751-2.944-5.123-4.416-11.042-4.416-17.756zm115.554-35.516h93.648v32.159h-52.832v14.312h46.471v30.037h-46.471v14.666h53.891v32.512h-94.707V325.488zm109.902 0h40.816v87.993h52.83v35.692h-93.646V325.488zm101.773 35.516c0-12.485 4.563-21.997 13.694-28.536 9.127-6.537 20.761-9.807 34.896-9.807 17.551 0 32.688 3.419 45.409 10.249v35.338c-12.721-8.128-26.387-12.073-40.992-11.838-7.305 0-10.954 1.827-10.954 5.477 0 1.652 1.118 3.153 3.356 4.507 2.237 1.355 5.094 2.562 8.57 3.622a746.91 746.91 0 0 0 11.661 3.445c4.298 1.236 8.597 2.857 12.899 4.859 4.297 2.004 8.185 4.359 11.661 7.067 3.473 2.711 6.331 6.361 8.569 10.954 2.236 4.595 3.357 9.779 3.357 15.55 0 26.74-17.316 40.108-51.947 40.108-18.848 0-35.223-3.887-49.121-11.662v-36.929c14.723 9.661 29.742 14.489 45.057 14.489 5.182 0 8.805-.47 10.867-1.413 2.059-.941 3.092-2.474 3.092-4.594 0-1.884-1.475-3.622-4.418-5.213-2.945-1.591-6.656-2.942-11.131-4.063-4.479-1.118-9.307-2.738-14.489-4.859-5.185-2.121-10.013-4.532-14.488-7.244-4.478-2.708-8.188-6.626-11.132-11.751-2.944-5.123-4.416-11.042-4.416-17.756z"/></svg>
